<svg xmlns="http://www.w3.org/2000/svg" viewBox="0 0 100 100"><path fill="#90A4AE" d="M16.455 31.871a6.276 6.276 0 1 0-8.228 9.479 6.276 6.276 0 0 0 8.228-9.479m8.352 2.234c-1.501 0-2.987.415-3.881 1.754 0 0-.04.046-.102.125a6.654 6.654 0 0 0-.36.479c-.434.621-1.053 1.646-1.294 2.746 0 0-.025.152-.033.423l.038.872-.032-.007 2.712 13.782-.032-.008-2.51 13.02a3.136 3.136 0 0 0 2.467 3.625 3.136 3.136 0 0 0 3.31-1.471c.179-.297.312-.629.384-.988l.427-2.133s1.517-6.807 2.433-11.426v-1.767s-.253-2.038-.539-3.41l.357.15c2.092.841 2.296.927.585.235 10.829 4.359 15.912 6.29 15.912 6.29l9.322-10.742-24.213-10.436s-2.495-1.113-4.951-1.113m69.929 33.297c.014.494.041.994.074 1.158.224 1.116.836 2.018 1.953 2.354.151.045.309.082.467.104 1.353.193 2.035-.67 2.392-1.771.106-.33.067-.676.119-1.039l.233-3.201.026-.071a3.146 3.146 0 0 0-2.307-3.086c-.313-.086-.781-.25-1.139-.25l-.074.002-20.131-5.43-20.648-9.014-7.145 8.232 23.478 6.459c.263.228 2.794.664 3.489.664.041 0 .074-.002.102-.004l-.001.004 19.112 4.889z"/></svg>