<svg xmlns="http://www.w3.org/2000/svg" viewBox="0 0 100 100"><g fill="#90A4AE"><circle cx="64.581" cy="14.891" r="9.973"/><path d="M88.648 33.362a5.444 5.444 0 0 0-7.107-2.947l-14.228 5.888-12.244-11.87c-.023-.022-.051-.037-.074-.059-3.336-3.214-8.63-3.415-12.205-.33L14.079 48.828a9.067 9.067 0 0 0-.939 12.788 9.022 9.022 0 0 0 3.777 2.592 5.4 5.4 0 0 0 1.809.465l.182.013c.261.032.521.048.784.057l26.664 1.925-10.674 20.456a5.44 5.44 0 1 0 9.645 5.034l14.507-27.805a5.443 5.443 0 0 0-.072-5.168 5.435 5.435 0 0 0-4.358-2.775l-20.632-1.488 19.106-16.491 8.43 8.172a5.436 5.436 0 0 0 5.866 1.12l17.528-7.253a5.442 5.442 0 0 0 2.946-7.108z"/></g></svg>