<svg xmlns="http://www.w3.org/2000/svg" viewBox="0 0 200 280"><g fill="#90A4AE"><path d="M182.25 13h-31.834c-1.063-4.12-5.184-6.718-9.388-5.827A7.992 7.992 0 0 0 134.942 13H70.307a7.986 7.986 0 0 0-6.083-5.826c-4.204-.89-8.327 1.704-9.389 5.826H23V0H0v308.317h23V25h29.623c-1.338 8.728-1.943 16.606-1.943 23.69-.03 22.38 5.992 37.11 12.597 46.117 4.721 6.469 9.571 9.902 12.304 11.482v149.346c0 6.83 5.537 12.363 12.363 12.363 6.828 0 12.365-5.533 12.365-12.363v-80.271h4.635v80.271c0 6.83 5.537 12.363 12.363 12.363 6.828 0 12.365-5.533 12.365-12.363V106.288c2.732-1.581 7.582-5.016 12.303-11.483 6.601-9.004 12.626-23.734 12.594-46.112 0-7.085-.606-14.965-1.942-23.692h29.624v283.317h23V0h-23v13zm-43.683 35.692c-.03 19.609-5.064 30.531-9.52 36.683-2.244 3.076-4.401 4.975-5.887 6.075-.069.051-.13.092-.197.14a7.616 7.616 0 0 0-1.02-.075H83.309a7.83 7.83 0 0 0-1.023.075c-1.664-1.195-4.291-3.481-6.928-7.426-4.212-6.338-8.655-17.091-8.677-35.474-.002-6.813.633-14.679 2.139-23.69h67.61c1.505 9.013 2.139 16.878 2.137 23.692z"/><ellipse transform="rotate(-76.891 102.633 64.427)" cx="102.626" cy="64.425" rx="22.495" ry="22.495"/></g></svg>