<?xml version="1.0" encoding="UTF-8"?>
<svg width="47px" height="18px" viewBox="0 0 47 18" version="1.1" xmlns="http://www.w3.org/2000/svg" xmlns:xlink="http://www.w3.org/1999/xlink">
    <!-- Generator: Sketch 39.1 (31720) - http://www.bohemiancoding.com/sketch -->
    <title>Infinity_in_circle</title>
    <desc>Created with Sketch.</desc>
    <defs></defs>
    <g id="Page-1" stroke="none" stroke-width="1" fill="none" fill-rule="evenodd">
        <g id="Artboard" fill="#000000">
            <g id="Infinity_in_circle">
                <g id="g5">
                    <path d="M46.6076695,8.8750339 C46.6076695,10.1189407 46.3862119,11.2875678 45.9456864,12.3809153 C45.5047627,13.4738644 44.8670763,14.4317881 44.0350169,15.2542881 C43.2029576,16.0767881 42.1797119,16.7236356 40.9660763,17.1952288 C39.7520424,17.666822 38.3735085,17.9022203 36.8284831,17.9022203 C35.725178,17.9022203 34.6019576,17.7317458 33.4584237,17.3907966 C32.3148898,17.0498475 31.1717542,16.5933898 30.0282203,16.0214237 C28.8846864,15.4494576 27.7411525,14.7874746 26.5980169,14.0354746 C25.4544831,13.2834746 24.3308644,12.4960254 23.2279576,11.6735254 C22.1039407,12.4757119 20.9862966,13.2480254 19.8730339,13.9904661 C18.7597712,14.7325085 17.6465085,15.3944915 16.5332458,15.9760169 C15.4199831,16.5575424 14.3067203,17.0243559 13.1930593,17.3752627 C12.0797966,17.7265678 10.9816695,17.901822 9.89827966,17.901822 C8.29311017,17.901822 6.89386441,17.6712034 5.70054237,17.2095678 C4.50682203,16.7487288 3.51424576,16.1317542 2.72161864,15.3590424 C1.92899153,14.5871271 1.33750847,13.6742119 0.946372881,12.6210932 C0.555237288,11.5679746 0.359669492,10.439178 0.359669492,9.23589831 C0.359669492,8.03261864 0.570372881,6.89386441 0.991381356,5.82083051 C1.41238983,4.74779661 2.03932203,3.80461017 2.87177966,2.9920678 C3.70383898,2.17952542 4.72230508,1.53267797 5.92598305,1.05112712 C7.12926271,0.569974576 8.51377119,0.329 10.0783136,0.329 C11.1210763,0.329 12.1893305,0.49429661 13.2830763,0.825288136 C14.3764237,1.15627966 15.4896864,1.60238136 16.6228644,2.16438983 C17.7560424,2.726 18.8947966,3.37802542 20.0379322,4.1200678 C21.1814661,4.86250847 22.3246017,5.63482203 23.4681356,6.43661017 C24.5515254,5.67465254 25.6596102,4.92225424 26.7931864,4.18021186 C27.9259661,3.43816949 29.0695,2.7809661 30.2233898,2.20939831 C31.3768814,1.6374322 32.5299746,1.18137288 33.6838644,0.840025424 C34.8373559,0.499076271 35.9753136,0.328601695 37.0993305,0.328601695 C38.6837881,0.328601695 40.0678983,0.554042373 41.251661,1.00572034 C42.4350254,1.457 43.422822,2.07397458 44.2154492,2.85624576 C45.0080763,3.63891525 45.6039407,4.54625424 46.0058305,5.57945763 C46.4069237,6.61345763 46.6076695,7.71198305 46.6076695,8.8750339 L46.6076695,8.8750339 Z M44.3926948,9.27704254 C44.3926948,8.23907789 44.2277469,7.3268357 43.898857,6.54182464 C43.5694641,5.75681359 43.1203835,5.10506834 42.5501064,4.58508023 C41.9803322,4.06609791 41.2903673,3.6798785 40.4797089,3.42692491 C39.6690504,3.17296553 38.7829585,3.04623729 37.8204273,3.04623729 C36.8835435,3.04623729 35.9210124,3.20464759 34.9333367,3.5214682 C33.945661,3.8382888 32.932338,4.26825963 31.8943733,4.81288934 C30.8554029,5.35751904 29.7792186,6.00322961 28.6653176,6.75052393 C27.5504108,7.49731536 26.4108624,8.27629174 25.2461695,9.08695018 C26.4616543,9.92275311 27.6394223,10.7203364 28.7789707,11.480203 C29.9185191,12.2400695 31.0263854,12.9114275 32.1030726,13.4937739 C33.1792569,14.0761204 34.2172215,14.5322415 35.2184752,14.8616343 C36.2187232,15.1905243 37.1877919,15.3554722 38.1246757,15.3554722 C39.1128542,15.3554722 39.9919057,15.2030965 40.7648474,14.8993511 C41.5377891,14.5956056 42.195569,14.1772013 42.7407016,13.6456467 C43.2853313,13.1140921 43.6961923,12.4744162 43.9752962,11.7276248 C44.2533943,10.9798276 44.3926948,10.1631345 44.3926948,9.27704254 L44.3926948,9.27704254 Z" id="path7"></path>
                </g>
            </g>
        </g>
    </g>
</svg>